<svg id="Layer_1" data-name="Layer 1" xmlns="http://www.w3.org/2000/svg" viewBox="0 0 830.08 306.15"><defs><style>.cls-1,.cls-11{fill:#f2f1f2;}.cls-10,.cls-13,.cls-2,.cls-4{fill:none;}.cls-2{stroke:#ffb214;}.cls-10,.cls-11,.cls-13,.cls-2,.cls-4,.cls-5,.cls-6,.cls-7,.cls-9{stroke-linecap:round;stroke-linejoin:round;}.cls-2,.cls-4{stroke-width:3px;}.cls-3,.cls-6{fill:#ffb214;}.cls-10,.cls-11,.cls-4,.cls-5,.cls-6,.cls-7,.cls-9{stroke:#282439;}.cls-12,.cls-5{fill:#fff;}.cls-7,.cls-8{fill:#282439;}.cls-9{fill:#f83943;}.cls-13{stroke:#fff;}</style></defs><title>Banner_people_stars</title><path class="cls-1" d="M281.18,24.42c34.64-12.49,77.65-7.07,112.36,3.38,13.14,3.95,26.07,8.59,38.9,13.45q11.56,4.39,22.93,9.27a579.7,579.7,0,0,1,63,31.83s77-55.1,138.46-19.56,81.19,97.3,81.21,97.37c.19.58,5.25,1.83,5.84,2.06a123.89,123.89,0,0,1,14.81,6.93c44.76,24.51,68,79.89,40.62,126.7-1,1.63-7.56,15.73-9.21,15.73l-696-.69S15.38,209.48,81.94,127.75,222,90.32,222,90.34c-.84-.5,9.54-21.55,10.55-23.51C243.77,45,261.06,31.68,281.18,24.42Z" transform="translate(-10.95 -6.93)"/><line class="cls-2" x1="1.5" y1="304.65" x2="112.79" y2="304.65"/><line class="cls-2" x1="122.39" y1="304.65" x2="205.03" y2="304.65"/><line class="cls-2" x1="211.05" y1="304.65" x2="224.05" y2="304.65"/><line class="cls-2" x1="232.99" y1="304.65" x2="668.05" y2="304.65"/><line class="cls-2" x1="678.4" y1="304.65" x2="764.17" y2="304.65"/><line class="cls-2" x1="775.14" y1="304.65" x2="828.58" y2="304.65"/><path class="cls-3" d="M414.07,101.34,398.26,80.92a2.11,2.11,0,0,0-1.8-.82l-25.79,1.44a2.12,2.12,0,0,1-1.87-3.32l14.53-21.35a2.11,2.11,0,0,0,.23-2l-9.35-24.08A2.13,2.13,0,0,1,376.79,28l24.8,7.23a2.13,2.13,0,0,0,1.93-.4l20-16.33A2.13,2.13,0,0,1,427,20.11l.78,25.81a2.16,2.16,0,0,0,1,1.73l21.71,14a2.13,2.13,0,0,1-.43,3.79l-24.31,8.73a2.11,2.11,0,0,0-1.34,1.46l-6.59,25A2.13,2.13,0,0,1,414.07,101.34Z" transform="translate(-10.95 -6.93)"/><line class="cls-4" x1="343.73" y1="154.44" x2="373.45" y2="300.7"/><line class="cls-4" x1="424.4" y1="300.7" x2="379.73" y2="160.62"/><line class="cls-4" x1="361.47" y1="241.78" x2="405.82" y2="242.45"/><line class="cls-4" x1="356.17" y1="215.83" x2="396.87" y2="214.2"/><line class="cls-4" x1="348.98" y1="180.29" x2="386" y2="180.29"/><polygon class="cls-5" points="368.86 207.9 374.55 206.54 374.09 198.41 367.24 199.87 368.86 207.9"/><polygon class="cls-5" points="396.2 223.52 403.31 222.13 404.1 230.74 397.64 232.1 396.2 223.52"/><path class="cls-5" d="M410.1,115.7s3,6.11,9,.5c0,0-1.4-3.28-1.1-5.37l-1.06.56-1,.3-1,.16-1.49,0-1.17-.14-.87-.24S411.34,114.28,410.1,115.7Z" transform="translate(-10.95 -6.93)"/><path class="cls-5" d="M409.47,97l-3,6.64,1.76.23s-1.59,8.15,5.88,8,6.43-7.81,6.43-7.81v-2.78l-.28-.93-1-1-1.57-.46-1.17-.56-.8-.68-1.08-1-.89-.46-.68-.08-1.83.56Z" transform="translate(-10.95 -6.93)"/><rect class="cls-6" x="413.15" y="89.07" width="13.25" height="2.55" transform="translate(53.66 -157.91) rotate(22.05)"/><polygon class="cls-7" points="410.35 79.63 403.16 79.74 415.44 84.71 410.35 79.63"/><path class="cls-8" d="M407.77,91.68a5.63,5.63,0,0,0-.92,2.3c-.33,2,1.27,3.09,3.12,3,1.09,0,2-.77,3.09-.85s1.92.81,2.65,1.53a4.85,4.85,0,0,0,2.88,1.52,2.22,2.22,0,0,1,1.94,2.09c.21,2.38-.78,6.45,2.41,7.31a2.37,2.37,0,0,0,2-.19,2,2,0,0,0,.64-1c.47-1.43-.12-2.92.18-4.37.34-1.66,1.24-3.07,1.28-4.81,0-1.37-.13-3.66-1.64-4.27l-12.27-5a4.26,4.26,0,0,0-2.3.36A6.18,6.18,0,0,0,407.77,91.68Z" transform="translate(-10.95 -6.93)"/><path class="cls-5" d="M395.43,108.76s-11.71-2.09-13.92-14c0,0-.85-5.94-.42-7.73a27.8,27.8,0,0,0,.42-6.7c-.08-2.3-1.78-9.68-2.29-2s0,3.31,0,3.31h-5.86a16.29,16.29,0,0,0,2.46,6.54S370.9,109,388.13,117.79Z" transform="translate(-10.95 -6.93)"/><path class="cls-5" d="M432.11,111.9c.41.5,5.88-6.09,6.15-6.49,5.95-8.78,5.06-19,5.1-29l-1.17-3.68c-.11-.34-8.38-18.8.85-4.42l7.3-2.89V68.2a16.77,16.77,0,0,1-1.81,6.46s11.6,29.54-8.43,46.87Z" transform="translate(-10.95 -6.93)"/><path class="cls-9" d="M396,106.58l-10.07,12.57,7.47,6.9-3.17,17.89,1.24,6.45,25.7,8.15,3.28-3.73,4.76-21.28L442,122.77l-10.88-12.68S419.1,124.36,396,106.58Z" transform="translate(-10.95 -6.93)"/><path class="cls-10" d="M411.06,127.75s3.34-7.92,3.54-12.45" transform="translate(-10.95 -6.93)"/><polygon class="cls-6" points="380.52 143.46 379.73 145.84 405.2 154.44 406.22 151.61 380.52 143.46"/><path class="cls-9" d="M385.13,156.62s16.53,12.57,32,10.75l-1-6-25.47-8.6Z" transform="translate(-10.95 -6.93)"/><path class="cls-7" d="M387.4,204.85l-11.21,2.37a95.54,95.54,0,0,1-3-12.16c-.94-5.08-1.89-10.41-1.47-15.66a22.41,22.41,0,0,1,7-14.54,31.87,31.87,0,0,1,8.73-6.67s14,10.45,29.09,9.36a95.3,95.3,0,0,1,.25,10.28c-.12,4.34-1.12,8.58-1.73,12.86-1.38,9.71-.36,19.91.28,29.64.19,2.8.39,5.61.64,8.4l-11,2.15s-7.69-26.37-8.37-37.81-.34-19.47-.34-19.47L392,177.18c-4.9,4.15-4.78,11-4.87,16.83C387.1,195,387.44,204.84,387.4,204.85Z" transform="translate(-10.95 -6.93)"/><polygon class="cls-9" points="359.52 218.18 377.86 212.23 374.55 206.54 368.86 207.9 359.52 218.18"/><polygon class="cls-9" points="406.56 237.79 404.1 230.74 397.64 232.1 385.16 241.78 406.56 237.79"/><line class="cls-4" x1="368.33" y1="275.5" x2="416.36" y2="275.5"/><path class="cls-3" d="M189.14,168.12l-23.15-12a2.15,2.15,0,0,0-2,0l-23,12.24a2.14,2.14,0,0,1-3.12-2.25l4.29-25.72a2.14,2.14,0,0,0-.63-1.9l-18.76-18.12a2.15,2.15,0,0,1,1.18-3.67l25.79-3.87a2.14,2.14,0,0,0,1.61-1.18l11.44-23.44a2.15,2.15,0,0,1,3.85,0l11.65,23.34a2.15,2.15,0,0,0,1.62,1.16l25.83,3.64a2.14,2.14,0,0,1,1.21,3.65l-18.59,18.3a2.1,2.1,0,0,0-.61,1.9l4.52,25.69A2.15,2.15,0,0,1,189.14,168.12Z" transform="translate(-10.95 -6.93)"/><path class="cls-6" d="M118.92,226.33c-1.58,14.87,2.5,30.28-3.51,44.54L108.62,287l9.17,4.75,5.77-9.34s10.19-13.75,10.87-25.64l.68-17.15L132.22,226Z" transform="translate(-10.95 -6.93)"/><path class="cls-6" d="M155.15,289.72l-11.21,2-6.63-24.28a129.15,129.15,0,0,0-4.85-15.16c-2-5-5.75-9.22-7.59-14.17a61.07,61.07,0,0,1-3-12.14l20-.22S155.15,259.84,155.15,289.72Z" transform="translate(-10.95 -6.93)"/><path class="cls-5" d="M137.82,152.85a25.32,25.32,0,0,0-1-3.61,52.59,52.59,0,0,0-4.41-9.32c-2.22-3.74-4.64-7.27-6.57-11.18-.65-1.31-1.68-3-.81-4.43.56-1,1.29-1.84,1.85-2.81a7.09,7.09,0,0,0,1.22-2.61c0-.91-.77-.28-1.23.06l-3.17,3.79,2.61-4s2.15-4-1.59-.39L122.15,122l3.16-4.81s1.53-3.23-1.47,0l-3,4.36,2.61-4.53s.79-3.57-1.81.28c0,0-5,5.66-2,12.17s9.12,24.28,9.17,26.83Z" transform="translate(-10.95 -6.93)"/><path class="cls-9" d="M126.37,154.92l13.15-4.27s3.21,25-4.41,36.68l-15-2.38S128.16,170.05,126.37,154.92Z" transform="translate(-10.95 -6.93)"/><path class="cls-5" d="M123.22,176.21a14.09,14.09,0,0,1,.59,5.26c-2.71,3.82-7.44,1.05-7.44,1.05s1.68-4,.73-6.66C117.1,175.86,122.59,174.68,123.22,176.21Z" transform="translate(-10.95 -6.93)"/><path class="cls-5" d="M111.79,172.26c.5.33.88.59,1,.69,3,2.49,8.35,6,11.79,2.17,1.91-2.11.68-5.07-.6-7.18a15,15,0,0,0-1.5-2.12l1.36-1.42-8.43-6.06-5.43,4-2.38,7.06C107.57,169.51,110.25,171.24,111.79,172.26Z" transform="translate(-10.95 -6.93)"/><rect class="cls-6" x="99.62" y="157.03" width="11.09" height="2.6" transform="translate(-92.11 113.8) rotate(-45)"/><polygon class="cls-9" points="97.22 146.56 91.34 148.52 89.38 154.4 97.22 146.56"/><path class="cls-8" d="M112.47,163.5a7.81,7.81,0,0,0-2.42,3.69,4.49,4.49,0,0,0,1.87,4.87c1,.79,2.39,1.7,2.8,3a4.11,4.11,0,0,1-.68,3.72c-1.44,1.86-4.24,2.18-6.35,1.36a4.68,4.68,0,0,1-2.54-2.17c-.8-1.59.14-2.9,0-4.52a2.39,2.39,0,0,0-.23-.83,7.49,7.49,0,0,0-2.35-2.53c-3.11-2.26-1.31-6-.39-6.88l7.84-7.85a8.25,8.25,0,0,1,3.82-.32c2.68.41,5.83,3.58,2.59,5.66A27,27,0,0,0,112.47,163.5Z" transform="translate(-10.95 -6.93)"/><path class="cls-9" d="M140.2,218.63l.68-20.49s-.27-17.89-17.34-17.61c0,0-1.34,2.55-7.17,2,0,0-8.77,4.41-1.87,22.52l5,14Z" transform="translate(-10.95 -6.93)"/><polygon class="cls-7" points="129.93 214.41 109.14 214.86 108.53 212.15 129.25 211.69 129.93 214.41"/><polygon class="cls-9" points="106.84 219.39 109.14 214.86 129.93 214.41 132.31 218.83 106.84 219.39"/><polygon class="cls-5" points="99.69 281.12 96.31 286.52 102.25 289.41 105.16 283.95 99.69 281.12"/><polygon class="cls-5" points="135.35 284.4 141.83 283.22 144.19 290.09 137.4 291.11 135.35 284.4"/><polygon class="cls-9" points="89.99 292.03 96.31 286.52 102.25 289.41 109.29 303.43 89.99 292.03"/><polygon class="cls-9" points="136.7 299.66 137.4 291.11 144.19 290.09 160.81 297.64 136.7 299.66"/><path class="cls-5" d="M159.9,184.52c4.19-3.21,8.5-6.26,12.66-9.51,3.6-2.81,7.73-5.79,9.92-9.93,0,0,4.25-8.06,2.38-.51l-.14,1.25,4.42,2.3s-.91,1.26-1,1.35a9.24,9.24,0,0,1-1.38,1.49,18,18,0,0,1-1.76,1.12,22.33,22.33,0,0,0-3.69,2.64c-4.87,4.58-9.17,9.87-13.67,14.81l-4.18,4.59Z" transform="translate(-10.95 -6.93)"/><path class="cls-9" d="M160.75,180.53l4.41,15.12s-11.71,9-35,4.16c-3.88-.81-8.6-3.07-10.52-6.74-2.7-5.15,2.33-9.87,7.47-9.58C134.43,183.9,140.71,189.36,160.75,180.53Z" transform="translate(-10.95 -6.93)"/><circle class="cls-8" cx="106.36" cy="157.45" r="0.72"/><circle class="cls-8" cx="401.49" cy="93.26" r="0.72"/><path class="cls-5" d="M522.74,132.18c0-.28.17-16.26-2.15-4.15,0,0-4.87-19.3-2.27-2.77,0,0-2.89-11.94-2.6-4.47l2.15,10Z" transform="translate(-10.95 -6.93)"/><path class="cls-9" d="M535.64,179.94A71.63,71.63,0,0,1,522,162.45v-5.77l10.73-7.22s5.07,13.9,14.72,21.25Z" transform="translate(-10.95 -6.93)"/><path class="cls-3" d="M519,186.59l-20.67-15.91a2.14,2.14,0,0,0-2-.34l-24.83,8a2.15,2.15,0,0,1-2.68-2.77L477.57,151a2.15,2.15,0,0,0-.28-2L462,127.9a2.15,2.15,0,0,1,1.8-3.41l26.08.72a2.15,2.15,0,0,0,1.79-.88L507,103.26a2.15,2.15,0,0,1,3.8.66l7.37,25a2.14,2.14,0,0,0,1.39,1.43l24.79,8.11a2.15,2.15,0,0,1,.55,3.82L523.42,157a2.15,2.15,0,0,0-.93,1.77l-.06,26.08A2.14,2.14,0,0,1,519,186.59Z" transform="translate(-10.95 -6.93)"/><path class="cls-5" d="M543.3,156.89l2.16.85a14.19,14.19,0,0,0-1,2.37,6.29,6.29,0,0,0,0,4.54c2.3,4.7,10.36-.18,12.46-3.23l-.45-1-.12-1.23.38-1.46.28-1.26v-.88l-.54-.55L555,154.6l-1.51-.5-1.23-.75s-.93-.76-1.09-.93-1.28-1.64-1.28-1.64l-.73-1.72Z" transform="translate(-10.95 -6.93)"/><path class="cls-5" d="M553.06,171s-1-3.61.26-6.35l-1.12.65-1.66.75-1.6.45-.93.12-1.12-.08-.5-.13-4.79,16Z" transform="translate(-10.95 -6.93)"/><path class="cls-5" d="M529.25,186.65l-7.39,7.89-2.55-7c-.75-2.05-1.44-4.27-2.2-6.38a37.55,37.55,0,0,0-3.06-6s-11-19.19-.43-4.08c0,0-9.34-18,2-.76-.78-1.43-1.53-2.86-2.27-4.31s-2.34-3.6-2.31-5.21c.67.2,1.21,1.19,1.61,1.76q2.22,3.12,4.28,6.36L514.05,163a2.82,2.82,0,0,1-.48-2.07c.38.07.62.48.86.81a21.79,21.79,0,0,1,3.2,5.25,36.48,36.48,0,0,0,1.5,4.1,4.87,4.87,0,0,1-.07-1.62,25.86,25.86,0,0,1,0-3.05c0-.33,0-1.43.48-1.4,1.06.06,1.15,3.39,1.27,4.16A36.43,36.43,0,0,0,522,174a34.44,34.44,0,0,0,2.65,6.33C524.94,181,529,186.91,529.25,186.65Z" transform="translate(-10.95 -6.93)"/><rect class="cls-6" x="551.88" y="146.48" width="14.01" height="2.38" transform="translate(209.82 -328.13) rotate(39.4)"/><polygon class="cls-9" points="550.63 137.46 543.27 135.37 554.1 144.26 550.63 137.46"/><path class="cls-8" d="M555,155.33a11.29,11.29,0,0,1-1.14-.19,7.83,7.83,0,0,1-2.55-1.43,7.38,7.38,0,0,1-2.89-7,3.62,3.62,0,0,1,4.34-2.61L563.54,153c1.16.95,1.69,4.23.82,5.42s-2.34,1-3,2.17c-.57,1-.56,2.39-1.87,2.81-2.27.74-4.12-1.85-3.75-3.87.21-1.11,1.29-3,.09-3.9A2,2,0,0,0,555,155.33Z" transform="translate(-10.95 -6.93)"/><path class="cls-9" d="M561.17,177.05l-8.42-7.58-7.88.68s-11.83,3.11-16.08,23.21a137.39,137.39,0,0,0-2.6,17l29.09-2.71,5.44-19.7S563.38,180.62,561.17,177.05Z" transform="translate(-10.95 -6.93)"/><polygon class="cls-5" points="514.96 206.91 515.24 203.46 544.33 200.74 544.33 204.25 514.96 206.91"/><polygon class="cls-9" points="509.18 224.18 514.96 206.91 544.33 204.25 547.22 223.55 509.18 224.18"/><path class="cls-6" d="M540.34,294.11H528.57s-9.17-18.57-3.4-63l29.55-.57s-1.59,33.8,6.9,63.57H548.94s-7.13-20.72-8.6-29.43C540.34,264.68,538.76,284.6,540.34,294.11Z" transform="translate(-10.95 -6.93)"/><polygon class="cls-11" points="520.33 295.27 519.57 287.18 526.71 287.18 527.13 294.85 520.33 295.27"/><polygon class="cls-11" points="540.88 287.18 547.67 287.18 548.52 293.4 541.64 294.17 540.88 287.18"/><polygon class="cls-7" points="507.46 302.9 529.37 302.27 527.13 294.85 520.33 295.27 507.46 302.9"/><polygon class="cls-7" points="551.07 300.37 548.52 293.4 541.64 294.17 530.71 303.96 551.07 300.37"/><path class="cls-9" d="M519.13,194.54,530.38,184s4.07,6.68,10.41,6.68c0,0,14.27-18.32,20-12.95s-11.08,23-11.08,23-7.48,9.06-18.81,4.31C530.94,205,522.83,200.15,519.13,194.54Z" transform="translate(-10.95 -6.93)"/><circle class="cls-8" cx="538.22" cy="146.94" r="0.72"/><line class="cls-6" x1="523.31" y1="224.18" x2="529.39" y2="257.74"/><ellipse class="cls-1" cx="202.72" cy="42.72" rx="24.26" ry="19.11" transform="translate(-7.16 93.64) rotate(-28.12)"/><ellipse class="cls-1" cx="726.33" cy="74.93" rx="15.03" ry="11.59" transform="matrix(0.95, -0.33, 0.33, 0.95, 4.38, 234.26)"/><ellipse class="cls-1" cx="31.31" cy="268.48" rx="12.33" ry="15.03" transform="translate(-233.76 169.42) rotate(-63.42)"/><ellipse class="cls-1" cx="775.12" cy="128.46" rx="29.6" ry="33.86" transform="translate(351.6 790.18) rotate(-67.73)"/><ellipse class="cls-1" cx="150.72" cy="60.1" rx="8.13" ry="11.7" transform="translate(0.91 137.12) rotate(-52.9)"/><path class="cls-3" d="M307.09,140.77l-22.8-12.17a2.13,2.13,0,0,0-2,0l-22.95,11.88a2.13,2.13,0,0,1-3.08-2.27l4.54-25.44a2.13,2.13,0,0,0-.6-1.89L241.83,92.7A2.13,2.13,0,0,1,243,89.08l25.6-3.55a2.16,2.16,0,0,0,1.61-1.15l11.59-23.1a2.13,2.13,0,0,1,3.82,0l11.28,23.25a2.15,2.15,0,0,0,1.59,1.18l25.56,3.88a2.13,2.13,0,0,1,1.15,3.64l-18.62,17.92a2.13,2.13,0,0,0-.63,1.88l4.2,25.5A2.12,2.12,0,0,1,307.09,140.77Z" transform="translate(-10.95 -6.93)"/><rect class="cls-9" x="266.1" y="145.24" width="13.33" height="2.89"/><path class="cls-8" d="M269.64,175.53s2.6-4.93,1.92-9.17,2.49-10.82,5.49-11.3h13.33s6.54,1.62,9.43,12.48c1.14,4.32,3.5,9.56,8.11,11s6.56,5.23,6.92,9.81c.2,2.5-.25,5,.18,7.51a7.52,7.52,0,0,0,1.51,3.47c1.13,1.43,2.91,2.47,3.48,4.29a6.92,6.92,0,0,1-1.72,6.25,8.09,8.09,0,0,0-2.52,6c0,2-1.68,4.28-3.83,3.26a4.57,4.57,0,0,1-2.11-2.62c-.4-1.07-.62-2.22-1.08-3.27-.95-2.16-3.07-2.41-5.14-2.78a7.06,7.06,0,0,1-5.43-3.66,49.26,49.26,0,0,1-3-6.1,13,13,0,0,1-1-6.55c.31-1.89.88-3.22.24-5.13a15.93,15.93,0,0,0-4-6.09l-.5-.66L287,182l-7.5.11-2.38-.68-2.21-1.53Z" transform="translate(-10.95 -6.93)"/><path class="cls-12" d="M282.16,177.63s.1,3.3-1.77,4.45l3,7.77,3.68-7.48s-1.86-4.13-1.49-4.92A6.06,6.06,0,0,1,282.16,177.63Z" transform="translate(-10.95 -6.93)"/><path class="cls-12" d="M283.31,178.29c-6.53-.28-7.05-8.58-7-12.13.06-2.91.32-2.91.72-2.91a.51.51,0,0,1,.17,0,3.69,3.69,0,0,0,1.25.21c3.08,0,6-3.53,6.06-3.57a.53.53,0,0,1,.39-.18H285a.49.49,0,0,1,.38.33c1,3.06,4.19,3.11,5.37,3.12.44,0,.66,0,.84.23a.58.58,0,0,1,.09.44h0V164c-.14,4.29-1.2,14.27-8.08,14.27Z" transform="translate(-10.95 -6.93)"/><path class="cls-8" d="M284.92,160.24c1.41,4.19,6.34,3.29,6.28,3.51s.11,14.05-7.59,14.05h-.28c-8-.34-6.45-14-6.28-14h0a4.14,4.14,0,0,0,1.41.24c3.36,0,6.46-3.75,6.46-3.75m0-1a1,1,0,0,0-.77.37c-.06.06-2.86,3.38-5.69,3.38a3.31,3.31,0,0,1-1.08-.18.92.92,0,0,0-.33-.06h0c-1,0-1.15.92-1.21,3.35-.18,7.74,2.61,12.48,7.46,12.69h.32c5.15,0,8.28-5.38,8.58-14.76a.87.87,0,0,1,0-.18,1.06,1.06,0,0,0-.21-.73,1.38,1.38,0,0,0-1.22-.43c-1.85,0-4.09-.36-4.9-2.78a1,1,0,0,0-.77-.66l-.18,0Z" transform="translate(-10.95 -6.93)"/><polyline class="cls-10" points="272.77 160.04 271.48 164.57 273.06 164.57"/><path class="cls-9" d="M324.43,276.56s-30.4,18.68-66.4,6.8c0,0-3.3-21.11,2.38-42.12,5.43-20.11,9.23-27.17,9.23-27.17L266,197.43s-10.51-13.35-12.78-26.21a53.75,53.75,0,0,1,1-23.2h8.6s-4.3,26.35,17.55,34.06l3.12,7.51L287,182l2.92.3,2.53,3.06,2.08,3.89.08,3.56-.5,3,.81,4.16,1.36,3.18,1.34,2.67-.46,7s7.35,7.13,8,26.15C305.94,260,315.6,268.24,324.43,276.56Z" transform="translate(-10.95 -6.93)"/><path class="cls-7" d="M312.2,296.43l-12.71-10.8a109.22,109.22,0,0,0,11.78-3.2l5.91,8.57Z" transform="translate(-10.95 -6.93)"/><path class="cls-7" d="M269.3,300.85l-1.48-15s8.49,1.42,11.1,1.41l-2.15,14.44Z" transform="translate(-10.95 -6.93)"/><polygon class="cls-6" points="299.33 305.01 301.25 289.5 306.23 284.06 312.69 288.37 299.33 305.01"/><path class="cls-6" d="M254.81,309.22c-.23.12,14.49-8.37,14.49-8.37l7.47.9.79,7.47Z" transform="translate(-10.95 -6.93)"/><polygon class="cls-6" points="265.5 173.41 264.77 173.01 270.09 186.68 270.52 199.33 273.06 202.64 275.27 199.07 275.27 186.51 279.46 176.01 278.96 175.34 276.04 175.04 272.44 182.91 269.44 175.14 266.16 173.75 265.5 173.41"/><path class="cls-9" d="M310.34,179.42C317.64,169.24,312,148,312,148l-8.83,1.69S306.43,161.28,301,171c0,0,2.81,6.82,7.32,7.72Z" transform="translate(-10.95 -6.93)"/><path class="cls-5" d="M255.32,148h6.36c.19-1.57.12-3.49.86-4.89.89-1.68,1.77-3.37,2.51-5.13.24-.54,1.68-3.19.66-3.33-1.35-.18-2.74,2.88-3.52,4a5.57,5.57,0,0,1-2.61,2.05,2.33,2.33,0,0,1-1.77.14c-.88-.37-1.29-1.53-1.65-2a21.74,21.74,0,0,0-.91,2.44,17.61,17.61,0,0,0,.06,3.89C255.33,146.09,255.32,147.05,255.32,148Z" transform="translate(-10.95 -6.93)"/><path class="cls-5" d="M310.36,148.32l-5.77,1.11-.24-2.79a13.91,13.91,0,0,0-.33-2.56,12.17,12.17,0,0,0-1.11-2.57c-.45-.83-.85-1.66-1.22-2.52-.25-.6-.56-1.18-.82-1.78a2.85,2.85,0,0,1-.38-1.82.47.47,0,0,1,.17-.25c.31-.21.77.06,1,.28a10.66,10.66,0,0,1,1.12,1.46c.43.56.75,1.18,1.13,1.76a5.78,5.78,0,0,0,1.9,1.88,3.25,3.25,0,0,0,2,.42,3.93,3.93,0,0,0,1.22-.37,7,7,0,0,0,1.32-.87,4.9,4.9,0,0,1,0,4.41Z" transform="translate(-10.95 -6.93)"/><circle class="cls-8" cx="276.56" cy="159.62" r="0.72"/><circle class="cls-8" cx="269.23" cy="159.62" r="0.72"/><path class="cls-13" d="M292.73,247.53s.39,21.94,16.45,27.75" transform="translate(-10.95 -6.93)"/><path class="cls-13" d="M283.73,256.29s3.09,15.12,8.07,19" transform="translate(-10.95 -6.93)"/><path class="cls-13" d="M400.06,146.27s13.85,1.79,19-7.15" transform="translate(-10.95 -6.93)"/><path class="cls-13" d="M407.82,150.39s7.22,1.43,9.69-2.37" transform="translate(-10.95 -6.93)"/><path class="cls-3" d="M633.27,167.12,614,149.57a2.1,2.1,0,0,0-1.93-.5L586.65,155a2.15,2.15,0,0,1-2.45-3l10.74-23.77a2.18,2.18,0,0,0-.12-2l-13.5-22.32a2.14,2.14,0,0,1,2.07-3.24l25.93,2.86a2.15,2.15,0,0,0,1.86-.73l17.06-19.74a2.15,2.15,0,0,1,3.73,1l5.28,25.55a2.16,2.16,0,0,0,1.27,1.54l24,10.12a2.15,2.15,0,0,1,.23,3.85L640.14,138a2.14,2.14,0,0,0-1.08,1.69l-2.2,26A2.15,2.15,0,0,1,633.27,167.12Z" transform="translate(-10.95 -6.93)"/><path class="cls-5" d="M640.24,176.32s-1.36-.93-2.55-6.7-1.67-10.59-2-1.11l-3.06-4.24s-6.2-6.92,0,2.65c0,0-10.28-11.91-1.11,1.11,0,0-10.35-12.55-1.35,1.06,0,0-9.34-11-1.48,1.38,0,0,4.31,6.56,6.06,9.9Z" transform="translate(-10.95 -6.93)"/><path class="cls-5" d="M662.29,137.24,661,130.62l-1.42-3.69S655,117,661,125l-.11-4.47s.43-11.67,1.45,1.8c0,0-.22-18,1.59-.11,0,0-.23-16,1.07.62,0,0,.85-11.55,1.41-1.7V125s-.9,5.82,1.13,10.58Z" transform="translate(-10.95 -6.93)"/><path class="cls-9" d="M680.21,185.47c-.89-.23-18.81-23-20.1-48.46l8.35-4.3s8.39,26.26,17.72,31.92Z" transform="translate(-10.95 -6.93)"/><path class="cls-5" d="M674.92,166.22l1.57.89s-4.5,7.26,1.11,7.13,7-1.41,7-1.41,3.29-2.15,3.25-2.28-2-6.83-2-6.83l-4.2-4.12-2,1.43Z" transform="translate(-10.95 -6.93)"/><path class="cls-5" d="M676.11,180.19c-.23-.28,2.72-2.56,3.52-6.06l1.28-.14,1.36-.25,1.11-.31,1-.41-.49.79-1,2.07-.3,1.28-.11,1.63.11,1.4.38,1.7.36,1.09S678.7,183.24,676.11,180.19Z" transform="translate(-10.95 -6.93)"/><path class="cls-9" d="M674.51,178.28a14.31,14.31,0,0,0,8.55,4s4.3,6.43,4.53,6.43.68,4.77.68,4.77-1.08,11.93,1.47,17.13,8.09,5.38,8,19.87,7.81,23,7.81,23,9.23,9.28,15.34,11c0,0-23.61,33.68-57.34,23.83,0,0-9.4-35.77,2.72-61.13,0,0,5-7.59,2.6-14.38s-4.75-15.06-4.75-15.06,3.73-13.58,3.5-13.69S674.51,178.28,674.51,178.28Z" transform="translate(-10.95 -6.93)"/><path class="cls-9" d="M640.38,174.25c-.21-.34-8.26,6.35-8.26,6.35s8,21.73,28,19.36c5.29-.63,11-2.4,14.3-6.91,2.7-3.73,4.82-11.42-1.36-12.89-4-.95-8.18.58-11.8,2.28-1.76.83-3.31,1.82-5.26,2-4.83.53-9.2-2.37-12.31-5.82A33.08,33.08,0,0,1,640.38,174.25Z" transform="translate(-10.95 -6.93)"/><path class="cls-6" d="M669.6,289.7s2.22.64,8.51.48l-4.26,12.57-5.68.34Z" transform="translate(-10.95 -6.93)"/><polygon class="cls-7" points="645.93 302.35 657.22 296.15 662.9 295.81 664.02 302.35 645.93 302.35"/><path class="cls-6" d="M705.43,279.77,718.18,287l2.13-5.43-7.44-8S708,278,705.43,279.77Z" transform="translate(-10.95 -6.93)"/><polygon class="cls-7" points="712.16 294.88 707.23 280.11 709.36 274.67 715.38 274.67 712.16 294.88"/><circle class="cls-8" cx="670.38" cy="157.42" r="0.72"/><path class="cls-13" d="M689.27,242s2.3,24.91,15.75,28.3" transform="translate(-10.95 -6.93)"/><path class="cls-13" d="M686.18,259.89s2.67,11.36,11,15.62" transform="translate(-10.95 -6.93)"/><rect class="cls-6" x="684.29" y="157.49" width="12.55" height="2.8" transform="translate(185.42 -355.87) rotate(32.82)"/><path class="cls-8" d="M684.56,168.51s3.4,1.36.6,3.82c0,0-6,4.5-.17,14.1a28.6,28.6,0,0,1,3.7,8.72,12.22,12.22,0,0,1,.26,5.07c-.58,2.84-1,5,1,7.46a19.35,19.35,0,0,0,3.78,3.39,56.81,56.81,0,0,1,4.87,3.36c2,1.75,2.88,4.59,3.59,7l.39,1.42c.57,2.16.62,4.5,1.6,6.55a7.7,7.7,0,0,0,5.33,4.06,15.14,15.14,0,0,0,8.77-.31c2.55-1,3.88-4.28,3.47-6.92-.29-1.9-1.5-3.74-1.05-5.7a3.81,3.81,0,0,1,3.36-2.87,17.5,17.5,0,0,0,2.51-.4c2.56-.81,5-3.59,4.83-6.35s-2.11-5.05-4.23-6.48c-1.54-1-3.33-1.65-4.95-2.55-3.12-1.71-4.27-4.58-4.9-8-.24-1.27-.37-2.57-.72-3.82-.91-3.2-3.92-5.48-6.71-7-4.33-2.38-8.76-6.22-10.87-10.79l-3.91-8.86-10.55-6.8s-5.06-.64-5.74,2.67c0,0-.94,1.53,2.37,2.13S684.56,168.51,684.56,168.51Z" transform="translate(-10.95 -6.93)"/><line class="cls-2" x1="299.91" y1="62.18" x2="310.7" y2="51.39"/><line class="cls-2" x1="241.49" y1="56.78" x2="251.67" y2="68"/><line class="cls-2" x1="224.05" y1="114.59" x2="236.73" y2="110.86"/><line class="cls-2" x1="309.27" y1="112.72" x2="320.96" y2="118.84"/><line class="cls-2" x1="389.11" y1="15.08" x2="386" y2="1.5"/><line class="cls-2" x1="357.47" y1="45.42" x2="346.31" y2="44.52"/><line class="cls-2" x1="428.86" y1="37.18" x2="440.92" y2="34.56"/><line class="cls-2" x1="471.3" y1="104.97" x2="466.31" y2="93.26"/><line class="cls-2" x1="454.99" y1="143.46" x2="440.92" y2="146.22"/><line class="cls-2" x1="483.97" y1="175.43" x2="482.16" y2="187.6"/><line class="cls-2" x1="523.31" y1="111.64" x2="534.92" y2="104.97"/><line class="cls-2" x1="593.11" y1="84.71" x2="587.67" y2="75.42"/><line class="cls-2" x1="637.48" y1="93.26" x2="649.16" y2="85.22"/><line class="cls-2" x1="570.06" y1="120.82" x2="556.88" y2="120.82"/><line class="cls-2" x1="599.9" y1="153.9" x2="597.63" y2="164.18"/><line class="cls-2" x1="178.19" y1="92.54" x2="184.65" y2="84.71"/><line class="cls-2" x1="129.93" y1="95.23" x2="119.58" y2="83.41"/><line class="cls-2" x1="186.92" y1="139.48" x2="196.61" y2="142.4"/></svg>